<?xml version="1.0" encoding="UTF-8"?>
<svg width="700pt" height="700pt" version="1.1" viewBox="0 0 700 700" xmlns="http://www.w3.org/2000/svg" xmlns:xlink="http://www.w3.org/1999/xlink">
 <defs>
  <symbol id="w" overflow="visible">
   <path d="m38.438-2.2969c-1.9805 1.0312-4.043 1.8086-6.1875 2.3281-2.1484 0.51953-4.3906 0.78125-6.7344 0.78125-6.9609 0-12.477-1.9453-16.547-5.8438-4.0742-3.8945-6.1094-9.1758-6.1094-15.844 0-6.6875 2.0352-11.973 6.1094-15.859 4.0703-3.8945 9.5859-5.8438 16.547-5.8438 2.3438 0 4.5859 0.26172 6.7344 0.78125 2.1445 0.52344 4.207 1.2969 6.1875 2.3281v8.6562c-2-1.3633-3.9766-2.3633-5.9219-3-1.9375-0.63281-3.9805-0.95312-6.125-0.95312-3.8438 0-6.8711 1.2344-9.0781 3.7031-2.2109 2.4609-3.3125 5.8555-3.3125 10.188 0 4.3125 1.1016 7.7031 3.3125 10.172 2.207 2.4688 5.2344 3.7031 9.0781 3.7031 2.1445 0 4.1875-0.31641 6.125-0.95312 1.9453-0.63281 3.9219-1.6328 5.9219-3z"/>
  </symbol>
  <symbol id="c" overflow="visible">
   <path d="m28.125-22.828c-0.875-0.41406-1.75-0.71875-2.625-0.90625-0.86719-0.19531-1.7344-0.29688-2.6094-0.29688-2.5859 0-4.5742 0.82812-5.9688 2.4844-1.3867 1.6484-2.0781 4.0117-2.0781 7.0938v14.453h-10.031v-31.375h10.031v5.1562c1.2891-2.0508 2.7695-3.5508 4.4375-4.5 1.6758-0.94531 3.6797-1.4219 6.0156-1.4219 0.33203 0 0.69531 0.015625 1.0938 0.046875 0.39453 0.03125 0.96094 0.09375 1.7031 0.1875z"/>
  </symbol>
  <symbol id="a" overflow="visible">
   <path d="m36.141-15.766v2.8438h-23.453c0.25 2.3555 1.0977 4.1211 2.5469 5.2969 1.457 1.1797 3.4922 1.7656 6.1094 1.7656 2.1133 0 4.2734-0.3125 6.4844-0.9375 2.2188-0.625 4.4922-1.5703 6.8281-2.8438v7.7344c-2.375 0.89844-4.75 1.5742-7.125 2.0312-2.3672 0.45703-4.7344 0.6875-7.1094 0.6875-5.6797 0-10.09-1.4414-13.234-4.3281-3.1484-2.8828-4.7188-6.9297-4.7188-12.141 0-5.125 1.5391-9.1484 4.625-12.078 3.0938-2.9375 7.3477-4.4062 12.766-4.4062 4.9375 0 8.8828 1.4922 11.844 4.4688 2.957 2.9688 4.4375 6.9375 4.4375 11.906zm-10.312-3.3438c0-1.9062-0.55859-3.4414-1.6719-4.6094-1.1055-1.1641-2.5547-1.75-4.3438-1.75-1.9492 0-3.5312 0.54688-4.75 1.6406-1.2109 1.0938-1.9648 2.668-2.2656 4.7188z"/>
  </symbol>
  <symbol id="e" overflow="visible">
   <path d="m18.875-14.125c-2.0859 0-3.6562 0.35938-4.7188 1.0781-1.0547 0.71094-1.5781 1.75-1.5781 3.125 0 1.2734 0.42188 2.2656 1.2656 2.9844 0.85156 0.71875 2.0352 1.0781 3.5469 1.0781 1.8945 0 3.4844-0.67578 4.7656-2.0312 1.2891-1.3516 1.9375-3.0469 1.9375-5.0781v-1.1562zm15.328-3.7812v17.906h-10.109v-4.6562c-1.3438 1.9062-2.8594 3.2969-4.5469 4.1719-1.6797 0.86328-3.7188 1.2969-6.125 1.2969-3.25 0-5.8906-0.94531-7.9219-2.8438-2.0234-1.8945-3.0312-4.3516-3.0312-7.375 0-3.6875 1.2656-6.3906 3.7969-8.1094s6.5039-2.5781 11.922-2.5781h5.9062v-0.78125c0-1.582-0.625-2.7422-1.875-3.4844-1.25-0.73828-3.2031-1.1094-5.8594-1.1094-2.1484 0-4.1484 0.21875-6 0.65625-1.8438 0.42969-3.5625 1.0703-5.1562 1.9219v-7.6406c2.1562-0.53125 4.3164-0.92969 6.4844-1.2031 2.1641-0.26953 4.332-0.40625 6.5-0.40625 5.6562 0 9.7383 1.1211 12.25 3.3594 2.5078 2.2305 3.7656 5.8555 3.7656 10.875z"/>
  </symbol>
  <symbol id="b" overflow="visible">
   <path d="m15.766-40.281v8.9062h10.344v7.1719h-10.344v13.312c0 1.4492 0.28906 2.4336 0.875 2.9531 0.58203 0.51172 1.7344 0.76562 3.4531 0.76562h5.1406v7.1719h-8.5938c-3.9609 0-6.7656-0.82031-8.4219-2.4688-1.6484-1.6562-2.4688-4.4609-2.4688-8.4219v-13.312h-5v-7.1719h5v-8.9062z"/>
  </symbol>
  <symbol id="j" overflow="visible">
   <path d="m26.172-26.781v-16.812h10.078v43.594h-10.078v-4.5312c-1.3867 1.8438-2.9141 3.1992-4.5781 4.0625-1.6562 0.85156-3.5781 1.2812-5.7656 1.2812-3.8672 0-7.043-1.5352-9.5312-4.6094-2.4805-3.0703-3.7188-7.0234-3.7188-11.859 0-4.8438 1.2383-8.8008 3.7188-11.875 2.4883-3.0703 5.6641-4.6094 9.5312-4.6094 2.1641 0 4.082 0.4375 5.75 1.3125 1.6758 0.86719 3.207 2.2148 4.5938 4.0469zm-6.625 20.312c2.1562 0 3.7969-0.78125 4.9219-2.3438 1.1328-1.5703 1.7031-3.8516 1.7031-6.8438 0-2.9883-0.57031-5.2656-1.7031-6.8281-1.125-1.5703-2.7656-2.3594-4.9219-2.3594-2.125 0-3.7578 0.78906-4.8906 2.3594-1.125 1.5625-1.6875 3.8398-1.6875 6.8281 0 2.9922 0.5625 5.2734 1.6875 6.8438 1.1328 1.5625 2.7656 2.3438 4.8906 2.3438z"/>
  </symbol>
  <symbol id="i" overflow="visible">
   <path d="m21.516-6.4688c2.1445 0 3.7812-0.78125 4.9062-2.3438 1.1328-1.5703 1.7031-3.8516 1.7031-6.8438 0-2.9883-0.57031-5.2656-1.7031-6.8281-1.125-1.5703-2.7617-2.3594-4.9062-2.3594-2.1484 0-3.7969 0.79297-4.9531 2.375-1.1484 1.5742-1.7188 3.8438-1.7188 6.8125s0.57031 5.2461 1.7188 6.8281c1.1562 1.5742 2.8047 2.3594 4.9531 2.3594zm-6.6719-20.312c1.3828-1.832 2.9141-3.1797 4.5938-4.0469 1.6875-0.875 3.6172-1.3125 5.7969-1.3125 3.875 0 7.0508 1.5391 9.5312 4.6094 2.4883 3.0742 3.7344 7.0312 3.7344 11.875 0 4.8359-1.2461 8.7891-3.7344 11.859-2.4805 3.0742-5.6562 4.6094-9.5312 4.6094-2.1797 0-4.1094-0.43359-5.7969-1.2969-1.6797-0.875-3.2109-2.2227-4.5938-4.0469v4.5312h-10.031v-43.594h10.031z"/>
  </symbol>
  <symbol id="h" overflow="visible">
   <path d="m0.70312-31.375h10.031l8.4219 21.297 7.1719-21.297h10.031l-13.188 34.344c-1.3359 3.4883-2.8828 5.9258-4.6406 7.3125-1.7617 1.3945-4.0898 2.0938-6.9844 2.0938h-5.7969v-6.5781h3.125c1.707 0 2.9453-0.27344 3.7188-0.8125 0.76953-0.54297 1.375-1.5117 1.8125-2.9062l0.28125-0.875z"/>
  </symbol>
  <symbol id="g" overflow="visible">
   <path d="m22.016-25.641c1.6953 0 2.9844-0.36719 3.8594-1.1094 0.88281-0.75 1.3281-1.8516 1.3281-3.3125 0-1.4375-0.44531-2.5312-1.3281-3.2812-0.875-0.75781-2.1641-1.1406-3.8594-1.1406h-5.9688v8.8438zm0.375 18.297c2.1641 0 3.7891-0.45312 4.875-1.3594 1.0938-0.91406 1.6406-2.3008 1.6406-4.1562 0-1.8125-0.54297-3.1719-1.625-4.0781-1.0859-0.90625-2.7148-1.3594-4.8906-1.3594h-6.3438v10.953zm10.016-15.047c2.3203 0.67969 4.1172 1.9219 5.3906 3.7344 1.2695 1.8125 1.9062 4.0391 1.9062 6.6719 0 4.0312-1.3672 7.0391-4.0938 9.0156-2.7305 1.9805-6.875 2.9688-12.438 2.9688h-17.906v-41.828h16.188c5.8125 0 10.02 0.88281 12.625 2.6406 2.6016 1.75 3.9062 4.5586 3.9062 8.4219 0 2.043-0.48047 3.7773-1.4375 5.2031-0.94922 1.4297-2.3281 2.4844-4.1406 3.1719z"/>
  </symbol>
  <symbol id="f" overflow="visible">
   <path d="m36.359-19.109v19.109h-10.078v-14.625c0-2.707-0.0625-4.5703-0.1875-5.5938-0.125-1.0312-0.33594-1.7891-0.625-2.2812-0.39844-0.65625-0.93359-1.1602-1.6094-1.5156-0.66797-0.36328-1.4297-0.54688-2.2812-0.54688-2.0938 0-3.7422 0.80859-4.9375 2.4219-1.1992 1.6172-1.7969 3.8516-1.7969 6.7031v15.438h-10.031v-31.375h10.031v4.5938c1.5195-1.832 3.1289-3.1797 4.8281-4.0469 1.6953-0.875 3.5703-1.3125 5.625-1.3125 3.625 0 6.375 1.1172 8.25 3.3438 1.875 2.2188 2.8125 5.4492 2.8125 9.6875z"/>
  </symbol>
  <symbol id="v" overflow="visible">
   <path d="m16.047-33.672v25.516h3.875c4.4062 0 7.7695-1.0859 10.094-3.2656 2.3203-2.1875 3.4844-5.3633 3.4844-9.5312 0-4.1445-1.1562-7.3008-3.4688-9.4688-2.3125-2.1641-5.6836-3.25-10.109-3.25zm-10.781-8.1562h11.375c6.3516 0 11.082 0.45312 14.188 1.3594 3.1133 0.90625 5.7812 2.4453 8 4.6094 1.957 1.8867 3.4102 4.0625 4.3594 6.5312 0.95703 2.4609 1.4375 5.25 1.4375 8.375 0 3.1562-0.48047 5.9766-1.4375 8.4531-0.94922 2.4688-2.4023 4.6484-4.3594 6.5312-2.2422 2.168-4.9336 3.7031-8.0781 4.6094-3.1367 0.90625-7.8398 1.3594-14.109 1.3594h-11.375z"/>
  </symbol>
  <symbol id="u" overflow="visible">
   <path d="m0.875-31.375h10.016l7.8281 21.688 7.7812-21.688h10.062l-12.359 31.375h-11.016z"/>
  </symbol>
  <symbol id="t" overflow="visible">
   <path d="m4.8125-31.375h10.031v31.375h-10.031zm0-12.219h10.031v8.1875h-10.031z"/>
  </symbol>
  <symbol id="s" overflow="visible">
   <path d="m29.328-30.391v7.6094c-2.1484-0.89453-4.2188-1.5664-6.2188-2.0156-2-0.44531-3.8867-0.67188-5.6562-0.67188-1.9062 0-3.3242 0.24219-4.25 0.71875-0.91797 0.48047-1.375 1.2148-1.375 2.2031 0 0.80469 0.34766 1.418 1.0469 1.8438 0.69531 0.42969 1.9531 0.74609 3.7656 0.95312l1.7656 0.25c5.1328 0.65625 8.5859 1.7344 10.359 3.2344 1.7812 1.4922 2.6719 3.8281 2.6719 7.0156 0 3.3438-1.2344 5.8594-3.7031 7.5469-2.4688 1.6797-6.1484 2.5156-11.031 2.5156-2.0742 0-4.2188-0.16797-6.4375-0.5-2.2109-0.32031-4.4805-0.8125-6.8125-1.4688v-7.6094c1.9883 0.96875 4.0352 1.6992 6.1406 2.1875 2.1016 0.48047 4.2383 0.71875 6.4062 0.71875 1.957 0 3.4297-0.26953 4.4219-0.8125 0.98828-0.53906 1.4844-1.3438 1.4844-2.4062 0-0.89453-0.34375-1.5625-1.0312-2-0.67969-0.4375-2.0312-0.78125-4.0625-1.0312l-1.7656-0.21875c-4.4688-0.5625-7.6016-1.5977-9.3906-3.1094-1.793-1.5078-2.6875-3.8047-2.6875-6.8906 0-3.3203 1.1406-5.7852 3.4219-7.3906 2.2812-1.6133 5.7695-2.4219 10.469-2.4219 1.8516 0 3.7969 0.14062 5.8281 0.42188 2.0391 0.28125 4.2539 0.72656 6.6406 1.3281z"/>
  </symbol>
  <symbol id="r" overflow="visible">
   <path d="m25.469-43.594v6.5781h-5.5469c-1.418 0-2.4062 0.26172-2.9688 0.78125-0.5625 0.51172-0.84375 1.4023-0.84375 2.6719v2.1875h8.5781v7.1719h-8.5781v24.203h-10.031v-24.203h-4.9844v-7.1719h4.9844v-2.1875c0-3.4141 0.95312-5.9414 2.8594-7.5781 1.9062-1.6328 4.8594-2.4531 8.8594-2.4531z"/>
  </symbol>
  <symbol id="d" overflow="visible">
   <path d="m19.75-24.969c-2.2188 0-3.9141 0.80469-5.0781 2.4062-1.168 1.5938-1.75 3.8984-1.75 6.9062 0 3 0.58203 5.3047 1.75 6.9062 1.1641 1.5938 2.8594 2.3906 5.0781 2.3906 2.1875 0 3.8594-0.79688 5.0156-2.3906 1.1562-1.6016 1.7344-3.9062 1.7344-6.9062 0-3.0078-0.57812-5.3125-1.7344-6.9062-1.1562-1.6016-2.8281-2.4062-5.0156-2.4062zm0-7.1719c5.3945 0 9.6094 1.4609 12.641 4.375 3.0391 2.918 4.5625 6.9531 4.5625 12.109s-1.5234 9.1953-4.5625 12.109c-3.0312 2.9062-7.2461 4.3594-12.641 4.3594-5.418 0-9.6523-1.4531-12.703-4.3594-3.0547-2.9141-4.5781-6.9531-4.5781-12.109s1.5234-9.1914 4.5781-12.109c3.0508-2.9141 7.2852-4.375 12.703-4.375z"/>
  </symbol>
  <symbol id="q" overflow="visible">
   <path d="m33.891-26.172c1.2695-1.9375 2.7812-3.4141 4.5312-4.4375 1.75-1.0195 3.6719-1.5312 5.7656-1.5312 3.6016 0 6.3477 1.1172 8.2344 3.3438 1.8828 2.2188 2.8281 5.4492 2.8281 9.6875v19.109h-10.094v-16.359c0.019531-0.23828 0.035156-0.48828 0.046875-0.75 0.007813-0.26953 0.015625-0.64453 0.015625-1.125 0-2.2266-0.32812-3.8359-0.98438-4.8281-0.65625-1-1.7148-1.5-3.1719-1.5-1.8984 0-3.3672 0.78906-4.4062 2.3594-1.0312 1.5625-1.5703 3.8281-1.6094 6.7969v15.406h-10.078v-16.359c0-3.4766-0.30469-5.7109-0.90625-6.7031-0.59375-1-1.6562-1.5-3.1875-1.5-1.9297 0-3.418 0.79297-4.4688 2.375-1.043 1.5742-1.5625 3.8242-1.5625 6.75v15.438h-10.078v-31.375h10.078v4.5938c1.2383-1.7695 2.6562-3.1016 4.25-4 1.5938-0.90625 3.3516-1.3594 5.2812-1.3594 2.1641 0 4.0781 0.52734 5.7344 1.5781 1.6641 1.043 2.9258 2.5078 3.7812 4.3906z"/>
  </symbol>
  <symbol id="p" overflow="visible">
   <path d="m36.359-19.109v19.109h-10.078v-14.562c0-2.75-0.0625-4.6328-0.1875-5.6562-0.125-1.0312-0.33594-1.7891-0.625-2.2812-0.39844-0.65625-0.93359-1.1602-1.6094-1.5156-0.66797-0.36328-1.4297-0.54688-2.2812-0.54688-2.0938 0-3.7422 0.80859-4.9375 2.4219-1.1992 1.6172-1.7969 3.8516-1.7969 6.7031v15.438h-10.031v-43.594h10.031v16.812c1.5195-1.832 3.1289-3.1797 4.8281-4.0469 1.6953-0.875 3.5703-1.3125 5.625-1.3125 3.625 0 6.375 1.1172 8.25 3.3438 1.875 2.2188 2.8125 5.4492 2.8125 9.6875z"/>
  </symbol>
  <symbol id="o" overflow="visible">
   <path d="m5.2656-41.828h12.047l15.219 28.688v-28.688h10.219v41.828h-12.047l-15.203-28.688v28.688h-10.234z"/>
  </symbol>
  <symbol id="n" overflow="visible">
   <path d="m4.4844-12.219v-19.156h10.078v3.1406c0 1.6992-0.011719 3.8359-0.03125 6.4062-0.011719 2.5625-0.015625 4.2734-0.015625 5.125 0 2.5234 0.0625 4.3398 0.1875 5.4531 0.13281 1.1172 0.35938 1.9219 0.67188 2.4219 0.41406 0.65625 0.95312 1.1641 1.6094 1.5156 0.66406 0.35547 1.4297 0.53125 2.2969 0.53125 2.082 0 3.7227-0.80078 4.9219-2.4062 1.1953-1.6016 1.7969-3.8359 1.7969-6.7031v-15.484h10.031v31.375h-10.031v-4.5312c-1.5117 1.8242-3.1172 3.1719-4.8125 4.0469-1.6875 0.86328-3.5469 1.2969-5.5781 1.2969-3.625 0-6.3867-1.1094-8.2812-3.3281-1.8984-2.2266-2.8438-5.4609-2.8438-9.7031z"/>
  </symbol>
  <symbol id="m" overflow="visible">
   <path d="m5.2656-41.828h17.906c5.3203 0 9.4062 1.1836 12.25 3.5469 2.8516 2.3672 4.2812 5.7305 4.2812 10.094 0 4.3984-1.4297 7.7773-4.2812 10.141-2.8438 2.3555-6.9297 3.5312-12.25 3.5312h-7.125v14.516h-10.781zm10.781 7.8125v11.688h5.9688c2.0938 0 3.707-0.50391 4.8438-1.5156 1.1445-1.0195 1.7188-2.4688 1.7188-4.3438 0-1.8633-0.57422-3.3008-1.7188-4.3125-1.1367-1.0078-2.75-1.5156-4.8438-1.5156z"/>
  </symbol>
  <symbol id="l" overflow="visible">
   <path d="m4.8125-31.375h10.031v30.812c0 4.207-1.0117 7.4141-3.0312 9.625-2.0117 2.207-4.9336 3.3125-8.7656 3.3125h-4.9531v-6.5781h1.7344c1.9062 0 3.2109-0.43359 3.9219-1.2969 0.70703-0.85547 1.0625-2.543 1.0625-5.0625zm0-12.219h10.031v8.1875h-10.031z"/>
  </symbol>
  <symbol id="k" overflow="visible">
   <path d="m30.172-30.391v8.1719c-1.3672-0.92578-2.7344-1.6133-4.1094-2.0625-1.3672-0.45703-2.7891-0.6875-4.2656-0.6875-2.8047 0-4.9844 0.82031-6.5469 2.4531-1.5547 1.6367-2.3281 3.9219-2.3281 6.8594 0 2.9297 0.77344 5.2109 2.3281 6.8438 1.5625 1.6367 3.7422 2.4531 6.5469 2.4531 1.5703 0 3.0625-0.23438 4.4688-0.70312s2.707-1.1602 3.9062-2.0781v8.2188c-1.5742 0.57422-3.168 1.0039-4.7812 1.2969-1.6172 0.28906-3.2344 0.4375-4.8594 0.4375-5.6562 0-10.086-1.4531-13.281-4.3594-3.1875-2.9062-4.7812-6.9414-4.7812-12.109 0-5.1758 1.5938-9.2188 4.7812-12.125 3.1953-2.9062 7.625-4.3594 13.281-4.3594 1.6445 0 3.2656 0.14844 4.8594 0.4375 1.6016 0.29297 3.1953 0.73047 4.7812 1.3125z"/>
  </symbol>
 </defs>
 <g>
  <path d="m482.26 309.84c0 76.055-61.652 137.7-137.71 137.7-76.055 0-137.7-61.648-137.7-137.7 0-76.055 61.648-137.7 137.7-137.7 76.055 0 137.71 61.648 137.71 137.7zm22.949 0c0-88.73-71.926-160.66-160.66-160.66s-160.66 71.926-160.66 160.66c0 88.73 71.926 160.66 160.66 160.66s160.66-71.926 160.66-160.66z" fill-rule="evenodd"/>
  <path d="m367.5 309.84c0 12.676-10.273 22.949-22.953 22.949-12.676 0-22.949-10.273-22.949-22.949 0-12.676 10.273-22.949 22.949-22.949 12.68 0 22.953 10.273 22.953 22.949zm22.949 0c0-25.352-20.551-45.902-45.902-45.902-25.352 0-45.902 20.551-45.902 45.902 0 25.352 20.551 45.902 45.902 45.902 25.352 0 45.902-20.551 45.902-45.902z" fill-rule="evenodd"/>
  <path d="m356.03 275.41v-57.379c0-6.3359-5.1367-11.473-11.477-11.473-6.3359 0-11.477 5.1367-11.477 11.473v57.379c0 6.3359 5.1406 11.477 11.477 11.477 6.3398 0 11.477-5.1406 11.477-11.477z" fill-rule="evenodd"/>
  <path d="m424.88 309.84c0 44.359-35.965 80.328-80.328 80.328-44.359 0-80.328-35.969-80.328-80.328 0-44.359 35.969-80.328 80.328-80.328 44.363 0 80.328 35.969 80.328 80.328zm22.953 0c0-57.035-46.246-103.28-103.28-103.28-57.035 0-103.28 46.242-103.28 103.28 0 57.035 46.242 103.28 103.28 103.28 57.035 0 103.28-46.242 103.28-103.28z" fill-rule="evenodd"/>
  <path d="m69.141 378.69h-44.375c-0.84375 0-1.5273-0.67969-1.5273-1.5273v-134.65c0-0.84375 0.68359-1.5273 1.5273-1.5273h44.375zm-68.852-1.5273c0 13.523 10.957 24.477 24.477 24.477h55.852c6.3359 0 11.477-5.1367 11.477-11.473v-160.66c0-6.3398-5.1406-11.477-11.477-11.477h-55.852c-13.52 0-24.477 10.957-24.477 24.477z" fill-rule="evenodd"/>
  <path d="m619.96 240.98h44.375c0.84766 0 1.5273 0.67969 1.5273 1.5273v134.65c0 0.84375-0.67969 1.5234-1.5273 1.5234h-44.375zm-22.949 149.18c0 6.3359 5.1367 11.477 11.473 11.477h55.852c13.523 0 24.477-10.957 24.477-24.477v-134.65c0-13.523-10.953-24.48-24.477-24.48h-55.852c-6.3359 0-11.473 5.1406-11.473 11.477z" fill-rule="evenodd"/>
  <path d="m551.11 423.07v-226.46c0-0.84375 0.67969-1.5234 1.5273-1.5234h42.848c0.84766 0 1.5273 0.67969 1.5273 1.5234v226.46c0 0.84766-0.67969 1.5273-1.5273 1.5273h-42.848c-0.84766 0-1.5273-0.67969-1.5273-1.5273zm-22.953 0c0 13.52 10.957 24.477 24.48 24.477h42.848c13.52 0 24.477-10.957 24.477-24.477v-226.46c0-13.52-10.957-24.477-24.477-24.477h-42.848c-13.523 0-24.48 10.957-24.48 24.477z" fill-rule="evenodd"/>
  <path d="m92.094 423.07v-226.46c0-0.84375 0.67969-1.5234 1.5234-1.5234h42.852c0.84375 0 1.5234 0.67969 1.5234 1.5234v226.46c0 0.84766-0.67969 1.5273-1.5234 1.5273h-42.852c-0.84375 0-1.5234-0.67969-1.5234-1.5273zm-22.953 0c0 13.52 10.957 24.477 24.477 24.477h42.852c13.52 0 24.477-10.957 24.477-24.477v-226.46c0-13.52-10.957-24.477-24.477-24.477h-42.852c-13.52 0-24.477 10.957-24.477 24.477z" fill-rule="evenodd"/>
  <path d="m206.85 309.84c0-26.586 7.6406-52.07 21.789-74.133 4.8984-7.6367-0.58594-17.672-9.6602-17.672h-69.508c-6.3359 0-11.477 5.1406-11.477 11.477v160.66c0 6.3359 5.1406 11.477 11.477 11.477h69.508c9.0742 0 14.559-10.035 9.6602-17.672-14.148-22.062-21.789-47.547-21.789-74.133zm-45.902 68.852v-137.7h38.535c-10.176 21.309-15.586 44.699-15.586 68.852 0 24.152 5.4102 47.543 15.586 68.852z" fill-rule="evenodd"/>
  <path d="m460.47 235.7c14.148 22.062 21.789 47.547 21.789 74.133 0 26.586-7.6406 52.07-21.789 74.133-4.8984 7.6367 0.58594 17.672 9.6602 17.672h69.504c6.3398 0 11.477-5.1406 11.477-11.477v-160.66c0-6.3359-5.1367-11.477-11.477-11.477h-69.504c-9.0742 0-14.559 10.035-9.6602 17.672zm67.691 5.2812v137.7h-38.535c10.176-21.309 15.582-44.699 15.582-68.852 0-24.152-5.4062-47.543-15.582-68.852z" fill-rule="evenodd"/>
  <use y="642.621094" xlink:href="#w"/>
  <use x="42.109375" y="642.621094" xlink:href="#c"/>
  <use x="70.40625" y="642.621094" xlink:href="#a"/>
  <use x="109.320312" y="642.621094" xlink:href="#e"/>
  <use x="148.039062" y="642.621094" xlink:href="#b"/>
  <use x="175.464844" y="642.621094" xlink:href="#a"/>
  <use x="214.378906" y="642.621094" xlink:href="#j"/>
  <use x="275.425781" y="642.621094" xlink:href="#i"/>
  <use x="316.5" y="642.621094" xlink:href="#h"/>
  <use x="373.875" y="642.621094" xlink:href="#g"/>
  <use x="417.609375" y="642.621094" xlink:href="#a"/>
  <use x="456.523437" y="642.621094" xlink:href="#f"/>
  <use x="517.347656" y="642.621094" xlink:href="#v"/>
  <use x="564.972656" y="642.621094" xlink:href="#e"/>
  <use x="603.691406" y="642.621094" xlink:href="#u"/>
  <use x="641.09375" y="642.621094" xlink:href="#t"/>
  <use x="660.761719" y="642.621094" xlink:href="#s"/>
  <use y="700" xlink:href="#r"/>
  <use x="24.960938" y="700" xlink:href="#c"/>
  <use x="53.257812" y="700" xlink:href="#d"/>
  <use x="92.675781" y="700" xlink:href="#q"/>
  <use x="172.4375" y="700" xlink:href="#b"/>
  <use x="199.867188" y="700" xlink:href="#p"/>
  <use x="240.714844" y="700" xlink:href="#a"/>
  <use x="299.605469" y="700" xlink:href="#o"/>
  <use x="347.625" y="700" xlink:href="#d"/>
  <use x="387.042969" y="700" xlink:href="#n"/>
  <use x="427.890625" y="700" xlink:href="#f"/>
  <use x="488.714844" y="700" xlink:href="#m"/>
  <use x="530.765625" y="700" xlink:href="#c"/>
  <use x="559.0625" y="700" xlink:href="#d"/>
  <use x="598.480469" y="700" xlink:href="#l"/>
  <use x="618.148438" y="700" xlink:href="#a"/>
  <use x="657.0625" y="700" xlink:href="#k"/>
  <use x="691.074219" y="700" xlink:href="#b"/>
 </g>
</svg>
