<?xml version="1.0" encoding="UTF-8"?>
<svg width="700pt" height="700pt" version="1.1" viewBox="0 0 700 700" xmlns="http://www.w3.org/2000/svg">
 <g fill-rule="evenodd">
  <path d="m268.33 46.668c-6.4375 0-11.664 5.2266-11.664 11.664 0 6.4414 5.2266 11.668 11.664 11.668h163.34c6.4375 0 11.664-5.2266 11.664-11.668 0-6.4375-5.2266-11.664-11.664-11.664zm163.34 70h-163.34c-32.152 0-58.332-26.18-58.332-58.336 0-32.152 26.18-58.332 58.332-58.332h163.34c32.152 0 58.332 26.18 58.332 58.332 0 32.156-26.18 58.336-58.332 58.336z"/>
  <path d="m350 186.67c-5.9727 0-11.945-2.2891-16.496-6.8398l-70-70c-9.125-9.1211-9.125-23.867 0-32.992 9.1211-9.1211 23.871-9.1211 32.992 0l70 70c9.125 9.125 9.125 23.871 0 32.992-4.5508 4.5508-10.523 6.8398-16.496 6.8398"/>
  <path d="m350 186.67c-5.9727 0-11.945-2.2891-16.496-6.8398-9.125-9.1211-9.125-23.867 0-32.992l70-70c9.1211-9.1211 23.871-9.1211 32.992 0 9.125 9.125 9.125 23.871 0 32.992l-70 70c-4.5508 4.5508-10.523 6.8398-16.496 6.8398"/>
  <path d="m116.67 513.33h466.66v-70h-466.66zm490 46.668h-513.34c-12.879 0-23.332-10.453-23.332-23.332v-116.67c0-12.879 10.453-23.332 23.332-23.332h513.34c12.902 0 23.332 10.453 23.332 23.332v116.67c0 12.879-10.43 23.332-23.332 23.332z"/>
  <path d="m303.33 396.67h93.336v-46.668h-93.336zm116.67 46.664h-140c-12.879 0-23.332-10.453-23.332-23.332v-93.332c0-12.883 10.453-23.336 23.332-23.336h140c12.879 0 23.332 10.453 23.332 23.336v93.332c0 12.879-10.453 23.332-23.332 23.332z"/>
  <path d="m303.33 233.33h93.336v-46.664h-93.336zm116.67 46.668h-140c-12.879 0-23.332-10.453-23.332-23.332v-93.336c0-12.879 10.453-23.332 23.332-23.332h140c12.879 0 23.332 10.453 23.332 23.332v93.336c0 12.879-10.453 23.332-23.332 23.332z"/>
  <path d="m256.67 303.33h186.66v-23.332h-186.66zm210 46.668h-233.34c-12.879 0-23.332-10.453-23.332-23.332v-70c0-12.883 10.453-23.336 23.332-23.336h233.34c12.879 0 23.332 10.453 23.332 23.336v70c0 12.879-10.453 23.332-23.332 23.332z"/>
 </g>
</svg>
