<?xml version="1.0" encoding="UTF-8"?>
<svg width="700pt" height="700pt" version="1.1" viewBox="0 0 700 700" xmlns="http://www.w3.org/2000/svg">
 <g fill-rule="evenodd">
  <path d="m350 186.67c-51.473 0-93.332 41.859-93.332 93.332s41.859 93.332 93.332 93.332 93.332-41.859 93.332-93.332-41.859-93.332-93.332-93.332m0 233.33c-77.211 0-140-62.789-140-140s62.789-140 140-140 140 62.789 140 140-62.789 140-140 140"/>
  <path d="m350 140c16.031 0 31.758 2.7773 46.668 8.1914v-101.52h-93.336v101.52c14.91-5.4141 30.637-8.1914 46.668-8.1914m70 70.512c-4.9922 0-9.9414-1.5859-14.07-4.7109-33.156-25.039-78.703-25.039-111.86 0-7.0703 5.3438-16.566 6.2305-24.453 2.2617-7.9336-3.918-12.949-12.016-12.949-20.883v-163.85c0-12.879 10.43-23.332 23.332-23.332h140c12.902 0 23.332 10.453 23.332 23.332v163.85c0 8.8672-5.0156 16.965-12.949 20.883-3.2656 1.6562-6.8359 2.4492-10.383 2.4492"/>
  <path d="m303.33 513.33h93.336v-101.52c-29.797 10.805-63.539 10.805-93.336 0zm116.67 46.668h-140c-12.902 0-23.332-10.453-23.332-23.332v-163.85c0-8.8672 5.0156-16.965 12.949-20.883 7.8867-3.9453 17.383-3.082 24.453 2.2617 33.156 25.039 78.703 25.039 111.86 0 7.0703-5.3438 16.566-6.207 24.453-2.2617 7.9336 3.918 12.949 12.016 12.949 20.883v163.85c0 12.879-10.43 23.332-23.332 23.332z"/>
  <path d="m466.67 303.33h-46.668c-12.902 0-23.332-10.453-23.332-23.332s10.43-23.332 23.332-23.332h46.668c12.902 0 23.332 10.453 23.332 23.332s-10.43 23.332-23.332 23.332"/>
  <path d="m280 303.33h-46.668c-12.902 0-23.332-10.453-23.332-23.332s10.43-23.332 23.332-23.332h46.668c12.902 0 23.332 10.453 23.332 23.332s-10.43 23.332-23.332 23.332"/>
  <path d="m350 420c-12.902 0-23.332-10.453-23.332-23.332v-46.668c0-12.879 10.43-23.332 23.332-23.332s23.332 10.453 23.332 23.332v46.668c0 12.879-10.43 23.332-23.332 23.332"/>
  <path d="m350 233.33c-12.902 0-23.332-10.453-23.332-23.332v-46.668c0-12.879 10.43-23.332 23.332-23.332s23.332 10.453 23.332 23.332v46.668c0 12.879-10.43 23.332-23.332 23.332"/>
 </g>
</svg>
